P3
# created by jpg2ppm
48 48 255
255 255 255
255 255 255
255 255 255
255 255 255
255 255 255
255 255 255
255 255 255
255 255 255
255 255 255
255 255 255
255 255 255
255 255 255
255 255 255
255 255 255
255 255 255
255 255 255
255 255 255
255 255 255
255 255 255
255 255 255
255 255 255
255 255 255
255 255 255
255 255 255
255 255 255
255 255 255
255 255 255
255 255 255
255 255 255
255 255 255
255 255 255
255 255 255
255 255 255
255 255 255
255 255 255
255 255 255
255 255 255
255 255 255
255 255 255
255 255 255
255 255 255
255 255 255
255 255 255
255 255 255
255 255 255
255 255 255
255 255 255
255 255 255
255 255 255
255 255 255
255 255 255
255 255 255
255 255 255
255 255 255
255 255 255
255 255 255
255 255 255
255 255 255
255 255 255
255 255 255
255 255 255
255 255 255
255 255 255
255 255 255
255 255 255
255 255 255
255 255 255
255 255 255
255 255 255
255 255 255
255 255 255
255 255 255
255 255 255
255 255 255
255 255 255
255 255 255
255 255 255
255 255 255
255 255 255
255 255 255
255 255 255
255 255 255
255 255 255
255 255 255
255 255 255
255 255 255
255 255 255
255 255 255
255 255 255
255 255 255
255 255 255
255 255 255
255 255 255
255 255 255
255 255 255
255 255 255
255 255 255
255 255 255
255 255 255
255 255 255
255 255 255
255 255 255
255 255 255
255 255 255
255 255 255
255 255 255
255 255 255
255 255 255
255 255 255
255 255 255
255 255 255
255 255 255
255 255 255
255 255 255
255 255 255
255 255 255
255 255 255
255 255 255
255 255 255
255 255 255
255 255 255
255 255 255
255 255 255
255 255 255
255 255 255
255 255 255
255 255 255
255 255 255
255 255 255
255 255 255
255 255 255
255 255 255
255 255 255
255 255 255
255 255 255
255 255 255
255 255 255
255 255 255
255 255 255
255 255 255
255 255 255
255 255 255
255 255 255
255 255 255
255 255 255
255 255 255
255 255 255
255 255 255
255 255 255
255 255 255
255 255 255
255 255 255
255 255 255
255 255 255
255 255 255
255 255 255
255 255 255
255 255 255
255 255 255
255 255 255
255 255 255
255 255 255
255 255 255
255 255 255
255 255 255
255 255 255
255 255 255
255 255 255
255 255 255
37 37 37
110 110 110
18 18 18
255 255 255
255 255 255
255 255 255
255 255 255
255 255 255
255 255 255
255 255 255
255 255 255
255 255 255
255 255 255
255 255 255
255 255 255
255 255 255
255 255 255
255 255 255
255 255 255
255 255 255
255 255 255
255 255 255
255 255 255
255 255 255
255 255 255
255 255 255
255 255 255
255 255 255
255 255 255
255 255 255
255 255 255
255 255 255
255 255 255
255 255 255
255 255 255
255 255 255
255 255 255
255 255 255
255 255 255
255 255 255
255 255 255
255 255 255
255 255 255
255 255 255
255 255 255
255 255 255
255 255 255
192 192 192
153 153 153
105 105 105
29 29 29
255 255 255
255 255 255
255 255 255
255 255 255
255 255 255
255 255 255
255 255 255
255 255 255
255 255 255
255 255 255
255 255 255
255 255 255
255 255 255
255 255 255
255 255 255
255 255 255
255 255 255
255 255 255
255 255 255
255 255 255
255 255 255
255 255 255
255 255 255
255 255 255
255 255 255
255 255 255
255 255 255
255 255 255
255 255 255
255 255 255
255 255 255
255 255 255
255 255 255
255 255 255
255 255 255
255 255 255
255 255 255
255 255 255
255 255 255
255 255 255
255 255 255
255 255 255
255 255 255
255 255 255
201 201 201
203 203 203
105 105 105
13 13 13
255 255 255
255 255 255
255 255 255
255 255 255
255 255 255
255 255 255
255 255 255
255 255 255
255 255 255
255 255 255
255 255 255
255 255 255
255 255 255
255 255 255
255 255 255
255 255 255
255 255 255
255 255 255
255 255 255
255 255 255
255 255 255
255 255 255
255 255 255
255 255 255
255 255 255
255 255 255
255 255 255
255 255 255
255 255 255
255 255 255
255 255 255
255 255 255
255 255 255
255 255 255
255 255 255
255 255 255
255 255 255
255 255 255
255 255 255
255 255 255
255 255 255
255 255 255
255 255 255
255 255 255
218 218 218
162 162 162
55 55 55
255 255 255
255 255 255
255 255 255
255 255 255
255 255 255
255 255 255
255 255 255
255 255 255
255 255 255
255 255 255
255 255 255
255 255 255
255 255 255
255 255 255
255 255 255
255 255 255
255 255 255
255 255 255
255 255 255
255 255 255
255 255 255
255 255 255
255 255 255
255 255 255
255 255 255
255 255 255
255 255 255
255 255 255
255 255 255
255 255 255
255 255 255
255 255 255
255 255 255
255 255 255
255 255 255
255 255 255
255 255 255
255 255 255
255 255 255
255 255 255
255 255 255
255 255 255
255 255 255
255 255 255
255 255 255
95 95 95
105 105 105
13 13 13
255 255 255
255 255 255
255 255 255
255 255 255
255 255 255
255 255 255
255 255 255
255 255 255
255 255 255
255 255 255
255 255 255
255 255 255
255 255 255
255 255 255
255 255 255
255 255 255
255 255 255
255 255 255
255 255 255
255 255 255
255 255 255
255 255 255
255 255 255
255 255 255
255 255 255
255 255 255
255 255 255
255 255 255
255 255 255
255 255 255
255 255 255
255 255 255
255 255 255
255 255 255
255 255 255
255 255 255
255 255 255
255 255 255
255 255 255
255 255 255
255 255 255
255 255 255
255 255 255
255 255 255
87 87 87
57 57 57
73 73 73
255 255 255
255 255 255
255 255 255
255 255 255
255 255 255
255 255 255
255 255 255
255 255 255
255 255 255
255 255 255
255 255 255
255 255 255
255 255 255
255 255 255
255 255 255
255 255 255
255 255 255
255 255 255
255 255 255
255 255 255
255 255 255
255 255 255
255 255 255
255 255 255
255 255 255
255 255 255
255 255 255
255 255 255
255 255 255
255 255 255
255 255 255
255 255 255
255 255 255
255 255 255
255 255 255
255 255 255
255 255 255
255 255 255
255 255 255
255 255 255
255 255 255
255 255 255
255 255 255
255 255 255
255 255 255
202 202 202
162 162 162
50 50 50
255 255 255
255 255 255
255 255 255
255 255 255
255 255 255
255 255 255
255 255 255
255 255 255
255 255 255
255 255 255
255 255 255
255 255 255
255 255 255
255 255 255
255 255 255
255 255 255
255 255 255
255 255 255
255 255 255
255 255 255
255 255 255
255 255 255
255 255 255
255 255 255
255 255 255
255 255 255
255 255 255
255 255 255
255 255 255
255 255 255
255 255 255
255 255 255
255 255 255
255 255 255
255 255 255
255 255 255
255 255 255
255 255 255
255 255 255
255 255 255
255 255 255
255 255 255
255 255 255
255 255 255
255 255 255
154 154 154
231 231 231
18 18 18
255 255 255
255 255 255
255 255 255
255 255 255
255 255 255
255 255 255
255 255 255
255 255 255
255 255 255
255 255 255
255 255 255
255 255 255
255 255 255
255 255 255
255 255 255
255 255 255
255 255 255
255 255 255
255 255 255
255 255 255
255 255 255
255 255 255
255 255 255
255 255 255
255 255 255
255 255 255
255 255 255
255 255 255
255 255 255
255 255 255
255 255 255
255 255 255
255 255 255
255 255 255
255 255 255
255 255 255
255 255 255
255 255 255
255 255 255
255 255 255
255 255 255
255 255 255
255 255 255
255 255 255
255 255 255
37 37 37
98 98 98
34 34 34
255 255 255
255 255 255
255 255 255
255 255 255
255 255 255
255 255 255
255 255 255
255 255 255
255 255 255
255 255 255
255 255 255
255 255 255
255 255 255
255 255 255
255 255 255
255 255 255
255 255 255
255 255 255
255 255 255
255 255 255
255 255 255
255 255 255
255 255 255
255 255 255
255 255 255
255 255 255
255 255 255
255 255 255
255 255 255
255 255 255
255 255 255
255 255 255
255 255 255
255 255 255
255 255 255
255 255 255
255 255 255
255 255 255
255 255 255
24 24 24
28 28 28
199 199 199
137 137 137
137 137 137
6 6 6
222 222 222
57 57 57
243 243 243
252 252 252
21 21 21
208 208 208
146 146 146
141 141 141
255 255 255
255 255 255
255 255 255
255 255 255
255 255 255
255 255 255
255 255 255
255 255 255
255 255 255
255 255 255
255 255 255
255 255 255
255 255 255
255 255 255
255 255 255
255 255 255
255 255 255
255 255 255
255 255 255
255 255 255
255 255 255
255 255 255
255 255 255
255 255 255
255 255 255
255 255 255
255 255 255
255 255 255
255 255 255
255 255 255
255 255 255
24 24 24
28 28 28
195 195 195
63 63 63
63 63 63
6 6 6
175 175 175
175 175 175
246 246 246
118 118 118
186 186 186
175 175 175
166 166 166
174 174 174
68 68 68
17 17 17
204 204 204
93 93 93
207 207 207
87 87 87
255 255 255
255 255 255
255 255 255
255 255 255
255 255 255
255 255 255
255 255 255
255 255 255
255 255 255
255 255 255
255 255 255
255 255 255
255 255 255
255 255 255
255 255 255
255 255 255
255 255 255
255 255 255
255 255 255
255 255 255
255 255 255
255 255 255
255 255 255
255 255 255
255 255 255
255 255 255
24 24 24
9 9 9
56 56 56
70 70 70
175 175 175
175 175 175
175 175 175
45 45 45
170 170 170
64 64 64
64 64 64
209 209 209
90 90 90
60 60 60
46 46 46
46 46 46
64 64 64
107 107 107
23 23 23
38 38 38
240 240 240
197 197 197
37 37 37
192 192 192
255 255 255
255 255 255
255 255 255
255 255 255
255 255 255
255 255 255
255 255 255
255 255 255
255 255 255
255 255 255
255 255 255
255 255 255
255 255 255
255 255 255
255 255 255
255 255 255
255 255 255
255 255 255
255 255 255
255 255 255
255 255 255
255 255 255
255 255 255
24 24 24
178 178 178
99 99 99
70 70 70
175 175 175
175 175 175
165 165 165
51 51 51
53 53 53
210 210 210
78 78 78
15 15 15
120 120 120
4 4 4
61 61 61
41 41 41
100 100 100
64 64 64
61 61 61
16 16 16
16 16 16
17 17 17
204 204 204
228 228 228
118 118 118
81 81 81
255 255 255
255 255 255
255 255 255
255 255 255
255 255 255
255 255 255
255 255 255
255 255 255
255 255 255
255 255 255
255 255 255
255 255 255
255 255 255
255 255 255
255 255 255
255 255 255
255 255 255
255 255 255
255 255 255
255 255 255
255 255 255
9 9 9
88 88 88
158 158 158
56 56 56
56 56 56
175 175 175
165 165 165
196 196 196
0 0 0
229 229 229
91 91 91
169 169 169
78 78 78
120 120 120
7 7 7
16 16 16
16 16 16
100 100 100
58 58 58
244 244 244
179 179 179
132 132 132
214 214 214
230 230 230
138 138 138
103 103 103
77 77 77
198 198 198
255 255 255
255 255 255
255 255 255
255 255 255
255 255 255
255 255 255
255 255 255
255 255 255
255 255 255
255 255 255
255 255 255
255 255 255
255 255 255
255 255 255
255 255 255
255 255 255
255 255 255
255 255 255
255 255 255
9 9 9
145 145 145
158 158 158
70 70 70
63 63 63
143 143 143
6 6 6
165 165 165
249 249 249
247 247 247
94 94 94
7 7 7
94 94 94
229 229 229
40 40 40
7 7 7
21 21 21
107 107 107
68 68 68
117 117 117
39 39 39
117 117 117
132 132 132
214 214 214
230 230 230
74 74 74
109 109 109
161 161 161
11 11 11
198 198 198
255 255 255
255 255 255
255 255 255
255 255 255
255 255 255
255 255 255
255 255 255
255 255 255
255 255 255
255 255 255
255 255 255
255 255 255
255 255 255
255 255 255
255 255 255
255 255 255
255 255 255
28 28 28
79 79 79
69 69 69
32 32 32
70 70 70
63 63 63
6 6 6
165 165 165
165 165 165
170 170 170
0 0 0
7 7 7
168 168 168
48 48 48
94 94 94
120 120 120
118 118 118
67 67 67
106 106 106
179 179 179
142 142 142
39 39 39
179 179 179
132 132 132
167 167 167
230 230 230
74 74 74
42 42 42
111 111 111
48 48 48
57 57 57
54 54 54
255 255 255
255 255 255
255 255 255
255 255 255
255 255 255
255 255 255
255 255 255
255 255 255
255 255 255
255 255 255
255 255 255
255 255 255
255 255 255
255 255 255
255 255 255
34 34 34
39 39 39
145 145 145
69 69 69
32 32 32
70 70 70
63 63 63
143 143 143
143 143 143
45 45 45
196 196 196
250 250 250
247 247 247
183 183 183
96 96 96
168 168 168
57 57 57
12 12 12
94 94 94
124 124 124
184 184 184
179 179 179
242 242 242
58 58 58
71 71 71
115 115 115
102 102 102
23 23 23
25 25 25
152 152 152
133 133 133
57 57 57
12 12 12
114 114 114
255 255 255
255 255 255
255 255 255
255 255 255
255 255 255
255 255 255
255 255 255
255 255 255
255 255 255
255 255 255
255 255 255
255 255 255
255 255 255
255 255 255
101 101 101
79 79 79
145 145 145
176 176 176
32 32 32
70 70 70
172 172 172
166 166 166
60 60 60
26 26 26
45 45 45
165 165 165
45 45 45
51 51 51
107 107 107
210 210 210
233 233 233
233 233 233
41 41 41
46 46 46
26 26 26
26 26 26
71 71 71
64 64 64
61 61 61
41 41 41
23 23 23
15 15 15
103 103 103
82 82 82
133 133 133
11 11 11
122 122 122
86 86 86
255 255 255
255 255 255
255 255 255
255 255 255
255 255 255
255 255 255
255 255 255
255 255 255
255 255 255
255 255 255
255 255 255
255 255 255
255 255 255
24 24 24
79 79 79
145 145 145
19 19 19
176 176 176
32 32 32
70 70 70
172 172 172
60 60 60
174 174 174
174 174 174
60 60 60
196 196 196
196 196 196
45 45 45
165 165 165
6 6 6
165 165 165
143 143 143
196 196 196
170 170 170
51 51 51
64 64 64
61 61 61
100 100 100
189 189 189
106 106 106
78 78 78
65 65 65
47 47 47
84 84 84
77 77 77
14 14 14
57 57 57
186 186 186
18 18 18
255 255 255
255 255 255
255 255 255
255 255 255
255 255 255
255 255 255
255 255 255
255 255 255
255 255 255
255 255 255
255 255 255
255 255 255
9 9 9
79 79 79
79 79 79
19 19 19
176 176 176
248 248 248
70 70 70
172 172 172
166 166 166
174 174 174
174 174 174
46 46 46
46 46 46
46 46 46
126 126 126
51 51 51
126 126 126
126 126 126
126 126 126
64 64 64
61 61 61
100 100 100
41 41 41
189 189 189
53 53 53
106 106 106
78 78 78
240 240 240
27 27 27
2 2 2
5 5 5
90 90 90
120 120 120
11 11 11
186 186 186
205 205 205
255 255 255
255 255 255
255 255 255
255 255 255
255 255 255
255 255 255
255 255 255
255 255 255
255 255 255
255 255 255
255 255 255
255 255 255
10 10 10
79 79 79
79 79 79
19 19 19
176 176 176
144 144 144
144 144 144
245 245 245
63 63 63
166 166 166
174 174 174
46 46 46
68 68 68
61 61 61
61 61 61
61 61 61
127 127 127
127 127 127
127 127 127
127 127 127
41 41 41
189 189 189
53 53 53
106 106 106
173 173 173
22 22 22
240 240 240
27 27 27
150 150 150
2 2 2
4 4 4
235 235 235
40 40 40
120 120 120
48 48 48
217 217 217
255 255 255
255 255 255
255 255 255
255 255 255
255 255 255
255 255 255
255 255 255
255 255 255
255 255 255
255 255 255
255 255 255
255 255 255
39 39 39
79 79 79
19 19 19
19 19 19
52 52 52
52 52 52
33 33 33
226 226 226
10 10 10
244 244 244
143 143 143
71 71 71
68 68 68
127 127 127
127 127 127
189 189 189
41 41 41
189 189 189
53 53 53
53 53 53
106 106 106
106 106 106
15 15 15
78 78 78
1 1 1
169 169 169
155 155 155
147 147 147
2 2 2
75 75 75
4 4 4
235 235 235
186 186 186
153 153 153
133 133 133
253 253 253
255 255 255
255 255 255
255 255 255
255 255 255
255 255 255
255 255 255
255 255 255
255 255 255
255 255 255
255 255 255
255 255 255
255 255 255
142 142 142
79 79 79
19 19 19
19 19 19
52 52 52
33 33 33
49 49 49
43 43 43
49 49 49
226 226 226
246 246 246
143 143 143
251 251 251
100 100 100
127 127 127
189 189 189
189 189 189
23 23 23
106 106 106
15 15 15
38 38 38
173 173 173
173 173 173
1 1 1
80 80 80
91 91 91
104 104 104
140 140 140
92 92 92
75 75 75
5 5 5
116 116 116
48 48 48
235 235 235
4 4 4
222 222 222
255 255 255
255 255 255
255 255 255
255 255 255
255 255 255
255 255 255
255 255 255
255 255 255
255 255 255
255 255 255
255 255 255
255 255 255
69 69 69
145 145 145
145 145 145
145 145 145
52 52 52
33 33 33
44 44 44
44 44 44
44 44 44
43 43 43
33 33 33
10 10 10
45 45 45
64 64 64
100 100 100
107 107 107
53 53 53
23 23 23
15 15 15
38 38 38
78 78 78
173 173 173
42 42 42
25 25 25
1 1 1
80 80 80
104 104 104
147 147 147
92 92 92
84 84 84
5 5 5
235 235 235
113 113 113
4 4 4
75 75 75
65 65 65
255 255 255
255 255 255
255 255 255
255 255 255
255 255 255
255 255 255
255 255 255
255 255 255
255 255 255
255 255 255
255 255 255
255 255 255
88 88 88
69 69 69
69 69 69
69 69 69
39 39 39
33 33 33
43 43 43
43 43 43
44 44 44
44 44 44
49 49 49
101 101 101
134 134 134
251 251 251
107 107 107
17 17 17
23 23 23
15 15 15
15 15 15
38 38 38
78 78 78
22 22 22
62 62 62
25 25 25
72 72 72
155 155 155
27 27 27
92 92 92
171 171 171
148 148 148
4 4 4
116 116 116
116 116 116
84 84 84
27 27 27
121 121 121
255 255 255
255 255 255
255 255 255
255 255 255
255 255 255
255 255 255
255 255 255
255 255 255
255 255 255
255 255 255
255 255 255
255 255 255
178 178 178
31 31 31
206 206 206
31 31 31
88 88 88
144 144 144
33 33 33
49 49 49
43 43 43
49 49 49
226 226 226
128 128 128
234 234 234
159 159 159
107 107 107
23 23 23
106 106 106
38 38 38
15 15 15
173 173 173
78 78 78
22 22 22
25 25 25
108 108 108
129 129 129
163 163 163
27 27 27
92 92 92
82 82 82
82 82 82
4 4 4
135 135 135
4 4 4
150 150 150
80 80 80
0 0 0
255 255 255
255 255 255
255 255 255
255 255 255
255 255 255
255 255 255
255 255 255
255 255 255
255 255 255
255 255 255
255 255 255
255 255 255
137 137 137
206 206 206
221 221 221
220 220 220
99 99 99
117 117 117
144 144 144
226 226 226
10 10 10
246 246 246
128 128 128
196 196 196
159 159 159
16 16 16
23 23 23
74 74 74
23 23 23
38 38 38
38 38 38
210 210 210
78 78 78
22 22 22
1 1 1
72 72 72
156 156 156
30 30 30
47 47 47
2 2 2
75 75 75
194 194 194
4 4 4
4 4 4
2 2 2
140 140 140
22 22 22
67 67 67
255 255 255
255 255 255
255 255 255
255 255 255
255 255 255
255 255 255
255 255 255
255 255 255
255 255 255
255 255 255
255 255 255
255 255 255
208 208 208
206 206 206
66 66 66
66 66 66
184 184 184
63 63 63
56 56 56
244 244 244
56 56 56
26 26 26
126 126 126
159 159 159
107 107 107
23 23 23
23 23 23
204 204 204
15 15 15
15 15 15
38 38 38
78 78 78
3 3 3
22 22 22
25 25 25
103 103 103
156 156 156
177 177 177
152 152 152
2 2 2
227 227 227
5 5 5
4 4 4
227 227 227
47 47 47
65 65 65
38 38 38
89 89 89
255 255 255
255 255 255
255 255 255
255 255 255
255 255 255
255 255 255
255 255 255
255 255 255
255 255 255
255 255 255
255 255 255
255 255 255
151 151 151
215 215 215
215 215 215
213 213 213
238 238 238
71 71 71
71 71 71
58 58 58
58 58 58
126 126 126
16 16 16
107 107 107
23 23 23
38 38 38
204 204 204
35 35 35
3 3 3
22 22 22
78 78 78
22 22 22
1 1 1
1 1 1
65 65 65
130 130 130
156 156 156
177 177 177
171 171 171
227 227 227
8 8 8
5 5 5
2 2 2
140 140 140
157 157 157
22 22 22
62 62 62
146 146 146
255 255 255
255 255 255
255 255 255
255 255 255
255 255 255
255 255 255
255 255 255
255 255 255
255 255 255
255 255 255
255 255 255
255 255 255
24 24 24
185 185 185
124 124 124
97 97 97
97 97 97
185 185 185
115 115 115
115 115 115
115 115 115
41 41 41
17 17 17
53 53 53
106 106 106
38 38 38
42 42 42
35 35 35
62 62 62
22 22 22
22 22 22
22 22 22
1 1 1
65 65 65
155 155 155
129 129 129
111 111 111
152 152 152
225 225 225
5 5 5
5 5 5
227 227 227
140 140 140
65 65 65
65 65 65
78 78 78
35 35 35
192 192 192
255 255 255
255 255 255
255 255 255
255 255 255
255 255 255
255 255 255
255 255 255
255 255 255
255 255 255
255 255 255
255 255 255
255 255 255
255 255 255
212 212 212
123 123 123
123 123 123
239 239 239
102 102 102
102 102 102
102 102 102
74 74 74
106 106 106
15 15 15
38 38 38
173 173 173
42 42 42
62 62 62
62 62 62
62 62 62
1 1 1
1 1 1
80 80 80
80 80 80
104 104 104
147 147 147
177 177 177
161 161 161
82 82 82
5 5 5
8 8 8
150 150 150
30 30 30
72 72 72
1 1 1
25 25 25
62 62 62
21 21 21
255 255 255
255 255 255
255 255 255
255 255 255
255 255 255
255 255 255
255 255 255
255 255 255
255 255 255
255 255 255
255 255 255
255 255 255
255 255 255
255 255 255
151 151 151
188 188 188
237 237 237
131 131 131
131 131 131
74 74 74
138 138 138
35 35 35
38 38 38
42 42 42
3 3 3
3 3 3
3 3 3
25 25 25
108 108 108
164 164 164
1 1 1
80 80 80
169 169 169
27 27 27
147 147 147
92 92 92
82 82 82
148 148 148
5 5 5
8 8 8
2 2 2
147 147 147
130 130 130
3 3 3
78 78 78
25 25 25
254 254 254
151 151 151
255 255 255
255 255 255
255 255 255
255 255 255
255 255 255
255 255 255
255 255 255
255 255 255
255 255 255
255 255 255
255 255 255
255 255 255
255 255 255
255 255 255
255 255 255
159 159 159
131 131 131
138 138 138
85 85 85
204 204 204
35 35 35
42 42 42
62 62 62
25 25 25
1 1 1
155 155 155
130 130 130
72 72 72
129 129 129
30 30 30
104 104 104
104 104 104
27 27 27
150 150 150
2 2 2
75 75 75
5 5 5
4 4 4
5 5 5
2 2 2
47 47 47
182 182 182
1 1 1
3 3 3
62 62 62
42 42 42
67 67 67
255 255 255
255 255 255
255 255 255
255 255 255
255 255 255
255 255 255
255 255 255
255 255 255
255 255 255
255 255 255
255 255 255
255 255 255
255 255 255
255 255 255
255 255 255
255 255 255
83 83 83
74 74 74
85 85 85
85 85 85
62 62 62
109 109 109
108 108 108
1 1 1
72 72 72
130 130 130
104 104 104
177 177 177
30 30 30
30 30 30
92 92 92
92 92 92
92 92 92
2 2 2
75 75 75
194 194 194
4 4 4
112 112 112
4 4 4
84 84 84
92 92 92
147 147 147
65 65 65
25 25 25
109 109 109
62 62 62
190 190 190
83 83 83
255 255 255
255 255 255
255 255 255
255 255 255
255 255 255
255 255 255
255 255 255
255 255 255
255 255 255
255 255 255
255 255 255
255 255 255
255 255 255
255 255 255
255 255 255
255 255 255
255 255 255
93 93 93
35 35 35
109 109 109
108 108 108
108 108 108
181 181 181
130 130 130
30 30 30
30 30 30
27 27 27
171 171 171
152 152 152
160 160 160
171 171 171
160 160 160
148 148 148
148 148 148
4 4 4
4 4 4
112 112 112
135 135 135
8 8 8
2 2 2
47 47 47
182 182 182
103 103 103
164 164 164
62 62 62
138 138 138
67 67 67
255 255 255
255 255 255
255 255 255
255 255 255
255 255 255
255 255 255
255 255 255
255 255 255
255 255 255
255 255 255
255 255 255
255 255 255
255 255 255
255 255 255
255 255 255
255 255 255
255 255 255
255 255 255
81 81 81
42 42 42
108 108 108
181 181 181
156 156 156
111 111 111
30 30 30
177 177 177
161 161 161
161 161 161
148 148 148
187 187 187
148 148 148
194 194 194
194 194 194
4 4 4
4 4 4
135 135 135
112 112 112
112 112 112
5 5 5
75 75 75
92 92 92
104 104 104
130 130 130
103 103 103
25 25 25
254 254 254
236 236 236
81 81 81
255 255 255
255 255 255
255 255 255
255 255 255
255 255 255
255 255 255
255 255 255
255 255 255
255 255 255
255 255 255
255 255 255
255 255 255
255 255 255
255 255 255
255 255 255
255 255 255
255 255 255
255 255 255
255 255 255
37 37 37
25 25 25
30 30 30
177 177 177
187 187 187
187 187 187
161 161 161
5 5 5
5 5 5
5 5 5
5 5 5
5 5 5
232 232 232
59 59 59
112 112 112
116 116 116
139 139 139
116 116 116
4 4 4
8 8 8
82 82 82
47 47 47
140 140 140
157 157 157
72 72 72
62 62 62
236 236 236
37 37 37
34 34 34
34 34 34
255 255 255
255 255 255
255 255 255
255 255 255
255 255 255
255 255 255
255 255 255
255 255 255
255 255 255
255 255 255
255 255 255
255 255 255
255 255 255
255 255 255
255 255 255
255 255 255
255 255 255
192 192 192
18 18 18
216 216 216
30 30 30
225 225 225
5 5 5
232 232 232
5 5 5
232 232 232
90 90 90
59 59 59
59 59 59
133 133 133
139 139 139
77 77 77
77 77 77
48 48 48
113 113 113
135 135 135
8 8 8
75 75 75
160 160 160
47 47 47
47 47 47
157 157 157
164 164 164
190 190 190
121 121 121
13 13 13
114 114 114
34 34 34
255 255 255
255 255 255
255 255 255
255 255 255
255 255 255
255 255 255
255 255 255
255 255 255
255 255 255
255 255 255
255 255 255
255 255 255
255 255 255
255 255 255
255 255 255
255 255 255
255 255 255
192 192 192
18 18 18
29 29 29
118 118 118
194 194 194
112 112 112
211 211 211
211 211 211
90 90 90
48 48 48
211 211 211
77 77 77
48 48 48
153 153 153
40 40 40
186 186 186
186 186 186
113 113 113
135 135 135
5 5 5
82 82 82
150 150 150
152 152 152
147 147 147
228 228 228
254 254 254
241 241 241
154 154 154
13 13 13
87 87 87
34 34 34
255 255 255
255 255 255
255 255 255
255 255 255
255 255 255
255 255 255
255 255 255
255 255 255
255 255 255
255 255 255
255 255 255
255 255 255
255 255 255
255 255 255
255 255 255
255 255 255
255 255 255
192 192 192
114 114 114
13 13 13
50 50 50
191 191 191
211 211 211
125 125 125
125 125 125
125 125 125
125 125 125
125 125 125
153 153 153
40 40 40
40 40 40
14 14 14
120 120 120
186 186 186
77 77 77
135 135 135
5 5 5
82 82 82
150 150 150
92 92 92
180 180 180
193 193 193
223 223 223
36 36 36
29 29 29
18 18 18
192 192 192
255 255 255
255 255 255
255 255 255
255 255 255
255 255 255
255 255 255
255 255 255
255 255 255
255 255 255
255 255 255
255 255 255
255 255 255
255 255 255
255 255 255
255 255 255
255 255 255
255 255 255
255 255 255
34 34 34
87 87 87
18 18 18
29 29 29
36 36 36
149 149 149
14 14 14
14 14 14
14 14 14
14 14 14
14 14 14
14 14 14
14 14 14
11 11 11
14 14 14
40 40 40
153 153 153
113 113 113
135 135 135
8 8 8
82 82 82
47 47 47
180 180 180
164 164 164
224 224 224
20 20 20
54 54 54
13 13 13
114 114 114
34 34 34
255 255 255
255 255 255
255 255 255
255 255 255
255 255 255
255 255 255
255 255 255
255 255 255
255 255 255
255 255 255
255 255 255
255 255 255
255 255 255
255 255 255
255 255 255
255 255 255
255 255 255
255 255 255
255 255 255
34 34 34
114 114 114
13 13 13
29 29 29
50 50 50
55 55 55
136 136 136
122 122 122
57 57 57
57 57 57
11 11 11
57 57 57
57 57 57
14 14 14
40 40 40
153 153 153
113 113 113
4 4 4
75 75 75
200 200 200
200 200 200
197 197 197
219 219 219
36 36 36
154 154 154
81 81 81
18 18 18
87 87 87
34 34 34
255 255 255
255 255 255
255 255 255
255 255 255
255 255 255
255 255 255
255 255 255
255 255 255
255 255 255
255 255 255
255 255 255
255 255 255
255 255 255
255 255 255
255 255 255
255 255 255
255 255 255
255 255 255
255 255 255
255 255 255
192 192 192
114 114 114
13 13 13
29 29 29
154 154 154
20 20 20
55 55 55
136 136 136
98 98 98
122 122 122
57 57 57
11 11 11
120 120 120
153 153 153
113 113 113
4 4 4
8 8 8
148 148 148
118 118 118
110 110 110
20 20 20
36 36 36
54 54 54
81 81 81
18 18 18
87 87 87
34 34 34
255 255 255
255 255 255
255 255 255
255 255 255
255 255 255
255 255 255
255 255 255
255 255 255
255 255 255
255 255 255
255 255 255
255 255 255
255 255 255
255 255 255
255 255 255
255 255 255
255 255 255
255 255 255
255 255 255
255 255 255
255 255 255
255 255 255
192 192 192
87 87 87
13 13 13
81 81 81
54 54 54
50 50 50
36 36 36
86 86 86
55 55 55
149 149 149
73 73 73
73 73 73
73 73 73
149 149 149
76 76 76
110 110 110
86 86 86
20 20 20
36 36 36
154 154 154
29 29 29
13 13 13
18 18 18
87 87 87
34 34 34
255 255 255
255 255 255
255 255 255
255 255 255
255 255 255
255 255 255
255 255 255
255 255 255
255 255 255
255 255 255
255 255 255
255 255 255
255 255 255
255 255 255
255 255 255
255 255 255
255 255 255
255 255 255
255 255 255
255 255 255
255 255 255
255 255 255
255 255 255
34 34 34
34 34 34
87 87 87
18 18 18
13 13 13
81 81 81
29 29 29
154 154 154
50 50 50
50 50 50
36 36 36
36 36 36
36 36 36
36 36 36
36 36 36
50 50 50
50 50 50
54 54 54
29 29 29
13 13 13
18 18 18
114 114 114
192 192 192
34 34 34
255 255 255
255 255 255
255 255 255
255 255 255
255 255 255
255 255 255
255 255 255
255 255 255
255 255 255
255 255 255
255 255 255
255 255 255
