P3
# created by jpg2ppm
33 48 255
255 255 255
255 255 255
255 255 255
255 255 255
255 255 255
255 255 255
255 255 255
255 255 255
255 255 255
255 255 255
255 255 255
255 255 255
255 255 255
255 255 255
188 188 188
178 178 178
70 70 70
70 70 70
20 20 20
231 231 231
255 255 255
255 255 255
255 255 255
255 255 255
255 255 255
255 255 255
255 255 255
255 255 255
255 255 255
255 255 255
255 255 255
255 255 255
255 255 255
255 255 255
255 255 255
255 255 255
255 255 255
255 255 255
255 255 255
255 255 255
255 255 255
255 255 255
255 255 255
255 255 255
255 255 255
255 255 255
255 255 255
231 231 231
127 127 127
102 102 102
102 102 102
127 127 127
149 149 149
255 255 255
255 255 255
255 255 255
255 255 255
255 255 255
255 255 255
255 255 255
255 255 255
255 255 255
255 255 255
255 255 255
255 255 255
255 255 255
255 255 255
255 255 255
255 255 255
255 255 255
255 255 255
255 255 255
255 255 255
255 255 255
255 255 255
255 255 255
255 255 255
255 255 255
255 255 255
255 255 255
159 159 159
232 232 232
6 6 6
6 6 6
102 102 102
149 149 149
255 255 255
255 255 255
255 255 255
255 255 255
255 255 255
255 255 255
255 255 255
255 255 255
255 255 255
255 255 255
255 255 255
255 255 255
255 255 255
255 255 255
255 255 255
255 255 255
255 255 255
255 255 255
255 255 255
255 255 255
255 255 255
255 255 255
255 255 255
255 255 255
255 255 255
255 255 255
255 255 255
149 149 149
6 6 6
79 79 79
79 79 79
6 6 6
159 159 159
255 255 255
255 255 255
255 255 255
255 255 255
255 255 255
255 255 255
255 255 255
255 255 255
255 255 255
255 255 255
255 255 255
255 255 255
255 255 255
255 255 255
255 255 255
255 255 255
255 255 255
255 255 255
255 255 255
255 255 255
255 255 255
255 255 255
255 255 255
255 255 255
255 255 255
255 255 255
255 255 255
178 178 178
79 79 79
33 33 33
7 7 7
79 79 79
149 149 149
255 255 255
255 255 255
255 255 255
255 255 255
255 255 255
255 255 255
255 255 255
255 255 255
255 255 255
255 255 255
255 255 255
255 255 255
255 255 255
255 255 255
255 255 255
255 255 255
255 255 255
255 255 255
255 255 255
255 255 255
255 255 255
255 255 255
255 255 255
255 255 255
255 255 255
255 255 255
255 255 255
113 113 113
189 189 189
51 51 51
34 34 34
33 33 33
49 49 49
255 255 255
255 255 255
255 255 255
255 255 255
255 255 255
255 255 255
255 255 255
255 255 255
255 255 255
255 255 255
255 255 255
255 255 255
255 255 255
255 255 255
255 255 255
255 255 255
255 255 255
255 255 255
255 255 255
255 255 255
255 255 255
255 255 255
255 255 255
159 159 159
149 149 149
230 230 230
20 20 20
127 127 127
7 7 7
34 34 34
97 97 97
51 51 51
228 228 228
255 255 255
255 255 255
255 255 255
255 255 255
255 255 255
255 255 255
255 255 255
255 255 255
255 255 255
255 255 255
255 255 255
255 255 255
255 255 255
255 255 255
255 255 255
255 255 255
255 255 255
255 255 255
255 255 255
255 255 255
255 255 255
49 49 49
222 222 222
10 10 10
77 77 77
152 152 152
114 114 114
77 77 77
42 42 42
3 3 3
97 97 97
51 51 51
113 113 113
255 255 255
255 255 255
255 255 255
255 255 255
255 255 255
255 255 255
255 255 255
255 255 255
255 255 255
255 255 255
255 255 255
255 255 255
255 255 255
255 255 255
255 255 255
255 255 255
255 255 255
255 255 255
255 255 255
255 255 255
95 95 95
254 254 254
96 96 96
145 145 145
39 39 39
80 80 80
86 86 86
151 151 151
7 7 7
3 3 3
88 88 88
34 34 34
20 20 20
255 255 255
255 255 255
255 255 255
255 255 255
255 255 255
255 255 255
255 255 255
255 255 255
255 255 255
255 255 255
255 255 255
255 255 255
255 255 255
255 255 255
255 255 255
255 255 255
255 255 255
255 255 255
255 255 255
20 20 20
229 229 229
39 39 39
26 26 26
152 152 152
89 89 89
120 120 120
23 23 23
25 25 25
42 42 42
34 34 34
88 88 88
34 34 34
49 49 49
255 255 255
255 255 255
255 255 255
255 255 255
255 255 255
255 255 255
255 255 255
255 255 255
255 255 255
255 255 255
255 255 255
255 255 255
255 255 255
255 255 255
255 255 255
255 255 255
255 255 255
255 255 255
149 149 149
10 10 10
39 39 39
26 26 26
38 38 38
227 227 227
205 205 205
23 23 23
23 23 23
65 65 65
7 7 7
3 3 3
88 88 88
51 51 51
123 123 123
255 255 255
255 255 255
149 149 149
208 208 208
117 117 117
222 222 222
149 149 149
255 255 255
255 255 255
255 255 255
255 255 255
255 255 255
255 255 255
255 255 255
255 255 255
255 255 255
255 255 255
255 255 255
123 123 123
160 160 160
58 58 58
38 38 38
26 26 26
38 38 38
59 59 59
80 80 80
141 141 141
65 65 65
7 7 7
3 3 3
88 88 88
34 34 34
70 70 70
255 255 255
49 49 49
175 175 175
177 177 177
120 120 120
91 91 91
52 52 52
20 20 20
255 255 255
255 255 255
255 255 255
255 255 255
255 255 255
255 255 255
255 255 255
255 255 255
255 255 255
255 255 255
69 69 69
26 26 26
26 26 26
224 224 224
96 96 96
38 38 38
59 59 59
80 80 80
46 46 46
65 65 65
7 7 7
3 3 3
3 3 3
97 97 97
51 51 51
15 15 15
5 5 5
120 120 120
212 212 212
118 118 118
118 118 118
212 212 212
125 125 125
255 255 255
255 255 255
255 255 255
255 255 255
255 255 255
255 255 255
255 255 255
255 255 255
255 255 255
255 255 255
195 195 195
38 38 38
119 119 119
56 56 56
184 184 184
26 26 26
59 59 59
80 80 80
86 86 86
177 177 177
7 7 7
34 34 34
34 34 34
88 88 88
60 60 60
201 201 201
4 4 4
144 144 144
91 91 91
66 66 66
66 66 66
81 81 81
5 5 5
20 20 20
255 255 255
255 255 255
255 255 255
255 255 255
255 255 255
255 255 255
255 255 255
255 255 255
255 255 255
69 69 69
59 59 59
59 59 59
166 166 166
96 96 96
115 115 115
96 96 96
80 80 80
220 220 220
89 89 89
51 51 51
3 3 3
88 88 88
97 97 97
60 60 60
22 22 22
107 107 107
192 192 192
55 55 55
62 62 62
42 42 42
64 64 64
227 227 227
20 20 20
255 255 255
255 255 255
255 255 255
255 255 255
255 255 255
255 255 255
255 255 255
255 255 255
255 255 255
123 123 123
101 101 101
38 38 38
58 58 58
98 98 98
119 119 119
167 167 167
166 166 166
229 229 229
52 52 52
32 32 32
189 189 189
33 33 33
7 7 7
247 247 247
0 0 0
22 22 22
22 22 22
71 71 71
36 36 36
36 36 36
212 212 212
254 254 254
20 20 20
255 255 255
255 255 255
255 255 255
255 255 255
255 255 255
255 255 255
255 255 255
255 255 255
255 255 255
188 188 188
254 254 254
39 39 39
26 26 26
98 98 98
171 171 171
119 119 119
167 167 167
54 54 54
206 206 206
21 21 21
21 21 21
21 21 21
21 21 21
88 88 88
93 93 93
22 22 22
22 22 22
68 68 68
154 154 154
23 23 23
86 86 86
175 175 175
255 255 255
255 255 255
255 255 255
255 255 255
255 255 255
255 255 255
255 255 255
255 255 255
255 255 255
255 255 255
255 255 255
69 69 69
26 26 26
58 58 58
98 98 98
171 171 171
58 58 58
119 119 119
54 54 54
143 143 143
7 7 7
42 42 42
42 42 42
21 21 21
51 51 51
93 93 93
0 0 0
107 107 107
67 67 67
64 64 64
118 118 118
177 177 177
178 178 178
255 255 255
255 255 255
255 255 255
255 255 255
255 255 255
255 255 255
255 255 255
255 255 255
255 255 255
255 255 255
255 255 255
231 231 231
229 229 229
39 39 39
26 26 26
26 26 26
180 180 180
26 26 26
50 50 50
70 70 70
8 8 8
8 8 8
8 8 8
44 44 44
196 196 196
93 93 93
0 0 0
0 0 0
192 192 192
73 73 73
169 169 169
138 138 138
136 136 136
255 255 255
255 255 255
255 255 255
255 255 255
255 255 255
255 255 255
255 255 255
255 255 255
255 255 255
255 255 255
255 255 255
255 255 255
175 175 175
38 38 38
26 26 26
58 58 58
180 180 180
58 58 58
13 13 13
229 229 229
5 5 5
19 19 19
19 19 19
142 142 142
157 157 157
93 93 93
0 0 0
0 0 0
22 22 22
71 71 71
161 161 161
72 72 72
255 255 255
255 255 255
255 255 255
255 255 255
255 255 255
255 255 255
255 255 255
255 255 255
255 255 255
255 255 255
255 255 255
255 255 255
255 255 255
222 222 222
26 26 26
98 98 98
105 105 105
82 82 82
35 35 35
58 58 58
166 166 166
114 114 114
217 217 217
217 217 217
92 92 92
157 157 157
93 93 93
0 0 0
0 0 0
22 22 22
14 14 14
191 191 191
20 20 20
255 255 255
255 255 255
255 255 255
255 255 255
255 255 255
255 255 255
255 255 255
255 255 255
255 255 255
255 255 255
255 255 255
255 255 255
149 149 149
147 147 147
38 38 38
144 144 144
110 110 110
109 109 109
35 35 35
84 84 84
168 168 168
224 224 224
75 75 75
75 75 75
74 74 74
193 193 193
93 93 93
0 0 0
0 0 0
0 0 0
246 246 246
183 183 183
123 123 123
255 255 255
255 255 255
255 255 255
255 255 255
255 255 255
255 255 255
255 255 255
255 255 255
255 255 255
255 255 255
255 255 255
255 255 255
20 20 20
13 13 13
78 78 78
198 198 198
99 99 99
172 172 172
35 35 35
98 98 98
160 160 160
25 25 25
151 151 151
151 151 151
89 89 89
193 193 193
93 93 93
93 93 93
93 93 93
0 0 0
93 93 93
245 245 245
188 188 188
228 228 228
255 255 255
255 255 255
255 255 255
255 255 255
255 255 255
255 255 255
255 255 255
255 255 255
255 255 255
255 255 255
136 136 136
17 17 17
239 239 239
55 55 55
179 179 179
94 94 94
94 94 94
35 35 35
244 244 244
156 156 156
175 175 175
250 250 250
135 135 135
249 249 249
16 16 16
112 112 112
207 207 207
88 88 88
0 0 0
93 93 93
173 173 173
214 214 214
222 222 222
255 255 255
255 255 255
255 255 255
255 255 255
255 255 255
255 255 255
255 255 255
255 255 255
255 255 255
20 20 20
219 219 219
145 145 145
58 58 58
172 172 172
74 74 74
82 82 82
82 82 82
171 171 171
54 54 54
226 226 226
34 34 34
7 7 7
34 34 34
33 33 33
3 3 3
187 187 187
173 173 173
153 153 153
0 0 0
0 0 0
22 22 22
31 31 31
90 90 90
123 123 123
255 255 255
255 255 255
255 255 255
255 255 255
255 255 255
255 255 255
255 255 255
159 159 159
138 138 138
145 145 145
38 38 38
84 84 84
182 182 182
74 74 74
239 239 239
180 180 180
115 115 115
54 54 54
102 102 102
7 7 7
42 42 42
42 42 42
62 62 62
3 3 3
187 187 187
16 16 16
21 21 21
0 0 0
0 0 0
22 22 22
68 68 68
210 210 210
1 1 1
188 188 188
255 255 255
255 255 255
255 255 255
255 255 255
255 255 255
228 228 228
156 156 156
38 38 38
38 38 38
35 35 35
217 217 217
204 204 204
36 36 36
94 94 94
105 105 105
84 84 84
223 223 223
125 125 125
250 250 250
249 249 249
215 215 215
153 153 153
40 40 40
48 48 48
16 16 16
21 21 21
0 0 0
0 0 0
22 22 22
68 68 68
11 11 11
47 47 47
140 140 140
136 136 136
255 255 255
255 255 255
255 255 255
255 255 255
208 208 208
25 25 25
145 145 145
58 58 58
35 35 35
91 91 91
221 221 221
172 172 172
98 98 98
84 84 84
101 101 101
65 65 65
2 2 2
2 2 2
243 243 243
242 242 242
30 30 30
131 131 131
182 182 182
216 216 216
42 42 42
0 0 0
93 93 93
246 246 246
134 134 134
210 210 210
27 27 27
27 27 27
125 125 125
149 149 149
255 255 255
255 255 255
149 149 149
223 223 223
145 145 145
38 38 38
58 58 58
35 35 35
45 45 45
67 67 67
237 237 237
35 35 35
66 66 66
189 189 189
249 249 249
62 62 62
164 164 164
43 43 43
43 43 43
43 43 43
62 62 62
245 245 245
216 216 216
41 41 41
4 4 4
246 246 246
68 68 68
248 248 248
158 158 158
169 169 169
9 9 9
2 2 2
136 136 136
255 255 255
255 255 255
49 49 49
227 227 227
181 181 181
45 45 45
26 26 26
105 105 105
145 145 145
68 68 68
121 121 121
58 58 58
168 168 168
92 92 92
132 132 132
66 66 66
130 130 130
100 100 100
100 100 100
100 100 100
163 163 163
47 47 47
137 137 137
111 111 111
24 24 24
68 68 68
71 71 71
165 165 165
129 129 129
169 169 169
118 118 118
120 120 120
53 53 53
255 255 255
255 255 255
72 72 72
166 166 166
46 46 46
59 59 59
45 45 45
181 181 181
9 9 9
240 240 240
166 166 166
38 38 38
38 38 38
46 46 46
181 181 181
114 114 114
124 124 124
184 184 184
36 36 36
92 92 92
109 109 109
146 146 146
191 191 191
142 142 142
63 63 63
71 71 71
71 71 71
170 170 170
85 85 85
128 128 128
118 118 118
78 78 78
52 52 52
136 136 136
149 149 149
117 117 117
57 57 57
45 45 45
86 86 86
27 27 27
141 141 141
158 158 158
200 200 200
59 59 59
45 45 45
86 86 86
86 86 86
23 23 23
114 114 114
124 124 124
184 184 184
203 203 203
92 92 92
91 91 91
190 190 190
28 28 28
66 66 66
24 24 24
199 199 199
68 68 68
129 129 129
139 139 139
154 154 154
174 174 174
81 81 81
5 5 5
20 20 20
149 149 149
108 108 108
181 181 181
45 45 45
174 174 174
201 201 201
73 73 73
110 110 110
179 179 179
57 57 57
57 57 57
23 23 23
86 86 86
118 118 118
185 185 185
124 124 124
184 184 184
203 203 203
92 92 92
27 27 27
66 66 66
28 28 28
27 27 27
85 85 85
76 76 76
14 14 14
199 199 199
14 14 14
134 134 134
24 24 24
186 186 186
103 103 103
159 159 159
136 136 136
138 138 138
141 141 141
86 86 86
174 174 174
14 14 14
14 14 14
241 241 241
86 86 86
57 57 57
57 57 57
86 86 86
9 9 9
118 118 118
185 185 185
124 124 124
203 203 203
161 161 161
1 1 1
215 215 215
62 62 62
116 116 116
253 253 253
158 158 158
139 139 139
134 134 134
201 201 201
61 61 61
71 71 71
130 130 130
238 238 238
2 2 2
231 231 231
149 149 149
175 175 175
63 63 63
9 9 9
9 9 9
190 190 190
139 139 139
9 9 9
141 141 141
46 46 46
57 57 57
46 46 46
23 23 23
9 9 9
75 75 75
184 184 184
36 36 36
236 236 236
191 191 191
233 233 233
21 21 21
12 12 12
194 194 194
64 64 64
129 129 129
154 154 154
11 11 11
209 209 209
90 90 90
234 234 234
131 131 131
103 103 103
178 178 178
255 255 255
53 53 53
9 9 9
78 78 78
81 81 81
186 186 186
141 141 141
141 141 141
186 186 186
9 9 9
9 9 9
9 9 9
23 23 23
52 52 52
28 28 28
116 116 116
116 116 116
137 137 137
214 214 214
83 83 83
153 153 153
99 99 99
73 73 73
194 194 194
158 158 158
139 139 139
129 129 129
165 165 165
37 37 37
116 116 116
99 99 99
56 56 56
188 188 188
255 255 255
123 123 123
121 121 121
9 9 9
78 78 78
186 186 186
63 63 63
186 186 186
150 150 150
186 186 186
78 78 78
78 78 78
81 81 81
29 29 29
42 42 42
30 30 30
131 131 131
225 225 225
111 111 111
83 83 83
164 164 164
99 99 99
73 73 73
194 194 194
155 155 155
155 155 155
252 252 252
252 252 252
64 64 64
122 122 122
248 248 248
135 135 135
255 255 255
255 255 255
20 20 20
5 5 5
220 220 220
9 9 9
9 9 9
186 186 186
150 150 150
190 190 190
24 24 24
81 81 81
81 81 81
150 150 150
1 1 1
32 32 32
183 183 183
73 73 73
137 137 137
28 28 28
43 43 43
134 134 134
12 12 12
76 76 76
194 194 194
155 155 155
18 18 18
90 90 90
162 162 162
64 64 64
144 144 144
163 163 163
72 72 72
255 255 255
255 255 255
255 255 255
195 195 195
186 186 186
9 9 9
78 78 78
150 150 150
150 150 150
24 24 24
150 150 150
81 81 81
78 78 78
146 146 146
177 177 177
8 8 8
43 43 43
235 235 235
153 153 153
153 153 153
41 41 41
104 104 104
37 37 37
76 76 76
194 194 194
155 155 155
12 12 12
6 6 6
164 164 164
11 11 11
122 122 122
140 140 140
178 178 178
255 255 255
255 255 255
255 255 255
159 159 159
2 2 2
24 24 24
174 174 174
128 128 128
190 190 190
150 150 150
150 150 150
150 150 150
85 85 85
133 133 133
161 161 161
53 53 53
242 242 242
100 100 100
87 87 87
6 6 6
30 30 30
210 210 210
64 64 64
194 194 194
194 194 194
155 155 155
11 11 11
116 116 116
87 87 87
73 73 73
37 37 37
222 222 222
255 255 255
255 255 255
255 255 255
255 255 255
255 255 255
72 72 72
109 109 109
128 128 128
27 27 27
190 190 190
146 146 146
133 133 133
165 165 165
165 165 165
47 47 47
37 37 37
15 15 15
235 235 235
104 104 104
249 249 249
226 226 226
213 213 213
210 210 210
194 194 194
76 76 76
11 11 11
11 11 11
73 73 73
194 194 194
37 37 37
155 155 155
218 218 218
188 188 188
255 255 255
255 255 255
255 255 255
255 255 255
255 255 255
95 95 95
138 138 138
170 170 170
154 154 154
154 154 154
129 129 129
165 165 165
253 253 253
253 253 253
252 252 252
148 148 148
62 62 62
127 127 127
8 8 8
126 126 126
44 44 44
4 4 4
104 104 104
18 18 18
11 11 11
11 11 11
76 76 76
55 55 55
163 163 163
122 122 122
103 103 103
20 20 20
255 255 255
255 255 255
255 255 255
255 255 255
255 255 255
255 255 255
255 255 255
136 136 136
251 251 251
139 139 139
170 170 170
27 27 27
154 154 154
129 129 129
165 165 165
252 252 252
148 148 148
40 40 40
176 176 176
176 176 176
176 176 176
62 62 62
31 31 31
104 104 104
11 11 11
11 11 11
76 76 76
37 37 37
163 163 163
122 122 122
103 103 103
20 20 20
255 255 255
255 255 255
255 255 255
255 255 255
255 255 255
255 255 255
255 255 255
255 255 255
255 255 255
95 95 95
125 125 125
236 236 236
133 133 133
27 27 27
27 27 27
144 144 144
122 122 122
248 248 248
225 225 225
106 106 106
106 106 106
126 126 126
40 40 40
31 31 31
199 199 199
199 199 199
12 12 12
55 55 55
37 37 37
64 64 64
56 56 56
123 123 123
255 255 255
255 255 255
255 255 255
255 255 255
255 255 255
255 255 255
255 255 255
255 255 255
255 255 255
255 255 255
255 255 255
255 255 255
123 123 123
218 218 218
202 202 202
165 165 165
122 122 122
64 64 64
18 18 18
87 87 87
8 8 8
8 8 8
83 83 83
30 30 30
4 4 4
12 12 12
12 12 12
73 73 73
55 55 55
1 1 1
125 125 125
188 188 188
255 255 255
255 255 255
255 255 255
255 255 255
255 255 255
255 255 255
255 255 255
255 255 255
255 255 255
255 255 255
255 255 255
255 255 255
255 255 255
255 255 255
95 95 95
113 113 113
251 251 251
142 142 142
130 130 130
162 162 162
90 90 90
6 6 6
8 8 8
6 6 6
197 197 197
211 211 211
90 90 90
116 116 116
56 56 56
117 117 117
208 208 208
255 255 255
255 255 255
255 255 255
255 255 255
255 255 255
255 255 255
255 255 255
255 255 255
255 255 255
255 255 255
255 255 255
255 255 255
255 255 255
255 255 255
255 255 255
255 255 255
255 255 255
255 255 255
136 136 136
136 136 136
113 113 113
20 20 20
53 53 53
8 8 8
83 83 83
8 8 8
143 143 143
72 72 72
123 123 123
178 178 178
149 149 149
255 255 255
255 255 255
255 255 255
255 255 255
255 255 255
255 255 255
255 255 255
255 255 255
255 255 255
255 255 255
255 255 255
255 255 255
255 255 255
255 255 255
255 255 255
255 255 255
255 255 255
255 255 255
255 255 255
255 255 255
255 255 255
255 255 255
255 255 255
255 255 255
178 178 178
208 208 208
123 123 123
20 20 20
136 136 136
255 255 255
255 255 255
255 255 255
255 255 255
255 255 255
255 255 255
255 255 255
255 255 255
255 255 255
255 255 255
255 255 255
255 255 255
255 255 255
255 255 255
